<svg id="Layer_1" data-name="Layer 1" xmlns="http://www.w3.org/2000/svg" viewBox="0 0 125.27 41.69"><path d="M22.53,19.14A94.49,94.49,0,0,1,46.23,5.3c.41.48-.27.41.14.9C38.43,8.94,27.24,16.46,23.52,21.8c1.78,12.11-2.22,22.6-10.19,25-3.55.66-4.55-.83-5.62-2.78-1.08-3.29-.85-6.22,1.19-9.87,3.74-5.94,5.94-8.28,11.41-13.53-1.63-3.29-4.49.55-7,.18,4.65-4.37,7.21-13.22,5-13.16-1.25-.25-3.51,5.23-6.87,4.66,1.93-3.07,6.52-8.55,8.84-5.87,2.11,1.9.3,7.46-1.48,10.42C20.42,16.24,21.3,16.38,22.53,19.14ZM13,31.7C10,36,8.27,42.61,11.56,44.88c1.31.93,3.25-.66,4.31-2C20.56,37.47,21.72,30,21.17,23A49.53,49.53,0,0,0,13,31.7Z" transform="translate(-7.07 -5.3)" style="fill:#8f8f8f"/><path d="M71.35,19.6a18.41,18.41,0,0,0-5.77,1c-2.73,1.26-6.36,2.5-9.35,3.77-2.66,1.24-5.45,1.72-8,.58C46,27,42,27,41.76,24.33c-.1-1.92,1.42-4.71-.54-5.75C37.86,18,37.45,27.79,33.7,27c-3.49-3.28-6,1.64-8.36-1.71-1.31-4.07,3.76-9.84,7.82-8.81C36.42,18,33.22,21,31.92,23c-.85,2,1,2.89,2.78.68,1.91-3.6,3.2-8.29,7.73-7.2,2.44.84,1.67,4.72,1.5,7.29.33,2.6,3.34-.33,3.34-.33-1.56-1.79-1.14-4.43.2-6.7,1.75-2,5.47-2.76,6.43-.12,1.32,3.64-2.23,4.68-3.88,6.74C54.8,25,65.14,17.21,71.35,19.6ZM27.22,23.78c.54.91,2,.81,3-.07-.36-2.05,4.55-5.41,1.9-5.71C30.38,18,26.45,21.76,27.22,23.78Zm21.27-1.53s4.92-3,3-4.88C50.72,16.58,46.84,18.78,48.49,22.25Z" transform="translate(-7.07 -5.3)" style="fill:#8f8f8f"/><circle cx="61.28" cy="18.28" r="2.36" style="fill:#fc5900"/><rect x="64.28" width="60.99" height="23" rx="11.5" style="fill:#21427c"/><path d="M82.92,13.34H85a5.63,5.63,0,0,1,1.39.15,2.56,2.56,0,0,1,1,.56,4,4,0,0,1,1.23,3.2,6.53,6.53,0,0,1-.12,1.3,3.74,3.74,0,0,1-.39,1.05,3.31,3.31,0,0,1-.66.84,2.87,2.87,0,0,1-.69.46,3.46,3.46,0,0,1-.81.24,5.74,5.74,0,0,1-1,.07H83a1.31,1.31,0,0,1-.66-.13.61.61,0,0,1-.28-.37,2.16,2.16,0,0,1-.07-.62V14.31a1,1,0,0,1,.23-.74A1,1,0,0,1,82.92,13.34Zm.61,1.26v5.34h1.21a5.46,5.46,0,0,0,.63,0,1.62,1.62,0,0,0,.46-.11,1.1,1.1,0,0,0,.42-.24,2.89,2.89,0,0,0,.8-2.33,3.33,3.33,0,0,0-.35-1.74,1.51,1.51,0,0,0-.87-.74,4.1,4.1,0,0,0-1.24-.16Z" transform="translate(-7.07 -5.3)" style="fill:#fff"/><path d="M92.21,17.84h-.55v2.53a1.09,1.09,0,0,1-.22.74.85.85,0,0,1-1.17,0,1.11,1.11,0,0,1-.21-.73V14.31a1,1,0,0,1,.23-.74,1,1,0,0,1,.75-.23h2.59a8.08,8.08,0,0,1,.92,0,2.2,2.2,0,0,1,.69.19,2,2,0,0,1,.65.44,2,2,0,0,1,.44.68,2.38,2.38,0,0,1,.14.81A2,2,0,0,1,96,16.91a2.83,2.83,0,0,1-1.51.74,3.07,3.07,0,0,1,.81.67,6.31,6.31,0,0,1,.69.94,7.17,7.17,0,0,1,.47.89,1.59,1.59,0,0,1,.17.56.51.51,0,0,1-.1.3.6.6,0,0,1-.27.25,1,1,0,0,1-.4.08.84.84,0,0,1-.45-.12,1.35,1.35,0,0,1-.31-.32q-.14-.2-.36-.57l-.64-1.06a6.52,6.52,0,0,0-.61-.9,1.51,1.51,0,0,0-.55-.41A1.81,1.81,0,0,0,92.21,17.84Zm.92-3.31H91.66V16.7h1.42a3.8,3.8,0,0,0,1-.1,1.17,1.17,0,0,0,.6-.34,1,1,0,0,0,.21-.66,1,1,0,0,0-.17-.57,1,1,0,0,0-.46-.38A3.31,3.31,0,0,0,93.13,14.53Z" transform="translate(-7.07 -5.3)" style="fill:#fff"/><path d="M101.45,13.2a4.24,4.24,0,0,1,2.1.5,3.24,3.24,0,0,1,1.33,1.41,4.83,4.83,0,0,1,.45,2.15,5.12,5.12,0,0,1-.25,1.66,3.56,3.56,0,0,1-.74,1.3,3.23,3.23,0,0,1-1.21.83,4.26,4.26,0,0,1-1.65.29,4.35,4.35,0,0,1-1.66-.29,3.29,3.29,0,0,1-1.21-.84,3.52,3.52,0,0,1-.74-1.31,5.19,5.19,0,0,1-.25-1.65,4.9,4.9,0,0,1,.26-1.66,3.43,3.43,0,0,1,.75-1.29,3.21,3.21,0,0,1,1.21-.82A4.49,4.49,0,0,1,101.45,13.2Zm2.26,4.05a3.65,3.65,0,0,0-.28-1.5,2.1,2.1,0,0,0-.79-1,2.28,2.28,0,0,0-1.19-.32,2.18,2.18,0,0,0-.89.18,1.86,1.86,0,0,0-.69.52,2.53,2.53,0,0,0-.47.88,4.09,4.09,0,0,0-.17,1.2,4.23,4.23,0,0,0,.17,1.22,2.75,2.75,0,0,0,.48.9,2,2,0,0,0,1.59.71,2.17,2.17,0,0,0,1.12-.31,2.06,2.06,0,0,0,.82-.94A3.74,3.74,0,0,0,103.71,17.25Z" transform="translate(-7.07 -5.3)" style="fill:#fff"/><path d="M108.77,14.16l3.07,4.64V14.11a1,1,0,0,1,.2-.68.65.65,0,0,1,.52-.23.7.7,0,0,1,.55.23,1,1,0,0,1,.2.68v6.2c0,.69-.29,1-.86,1a1.14,1.14,0,0,1-.39-.06,1,1,0,0,1-.32-.19,1.74,1.74,0,0,1-.28-.32l-.26-.37-3-4.58v4.61a1,1,0,0,1-.21.68.75.75,0,0,1-1.08,0,1,1,0,0,1-.2-.68V14.36a1.7,1.7,0,0,1,.08-.61.93.93,0,0,1,.34-.4,1,1,0,0,1,.51-.15.84.84,0,0,1,.64.26,2.27,2.27,0,0,1,.23.31C108.6,13.89,108.69,14,108.77,14.16Z" transform="translate(-7.07 -5.3)" style="fill:#fff"/><path d="M120.24,14.57h-3.59V16.5H120a.77.77,0,0,1,.54.16.57.57,0,0,1,.18.44.57.57,0,0,1-.18.43.72.72,0,0,1-.54.17h-3.31v2.24h3.71a.81.81,0,0,1,.57.18.58.58,0,0,1,.19.46.59.59,0,0,1-.19.46.86.86,0,0,1-.57.17H116a.84.84,0,0,1-1-1V14.31a1.48,1.48,0,0,1,.1-.56.64.64,0,0,1,.32-.31,1.31,1.31,0,0,1,.56-.1h4.21a.86.86,0,0,1,.57.16.65.65,0,0,1,0,.9A.86.86,0,0,1,120.24,14.57Z" transform="translate(-7.07 -5.3)" style="fill:#fff"/></svg>